<svg width="124" height="30" viewBox="0 0 124 30" fill="none" xmlns="http://www.w3.org/2000/svg">
<path d="M12.7168 2.35547C12.9395 2.35547 13.1312 2.38639 13.292 2.44824C13.4528 2.49772 13.5951 2.59049 13.7188 2.72656C13.8548 2.86263 13.9785 3.04199 14.0898 3.26465C14.2012 3.4873 14.3187 3.75944 14.4424 4.08105L22.959 26.8291C23.0208 27.0023 23.0641 27.1569 23.0889 27.293C23.1136 27.429 23.126 27.5651 23.126 27.7012C23.126 28.1465 22.9899 28.4743 22.7178 28.6846C22.458 28.8949 22.1797 29 21.8828 29H11.3623C11.0407 29 10.7686 28.9629 10.5459 28.8887C10.3356 28.8021 10.1562 28.7031 10.0078 28.5918C9.85938 28.4805 9.74186 28.363 9.65527 28.2393C9.58105 28.1156 9.53158 28.0042 9.50684 27.9053L9.30273 27.2559H4.08887L3.95898 27.8125C3.92188 27.998 3.87858 28.165 3.8291 28.3135C3.77962 28.4495 3.71777 28.5732 3.64355 28.6846C3.56934 28.7835 3.46419 28.8639 3.32812 28.9258C3.20443 28.9753 3.03743 29 2.82715 29H0.916016C0.520182 29 0.322266 28.8454 0.322266 28.5361C0.322266 28.4248 0.34082 28.2949 0.37793 28.1465C0.427409 27.9857 0.489258 27.8001 0.563477 27.5898L8.31934 4.11816C8.50488 3.53678 8.71517 3.10384 8.9502 2.81934C9.18522 2.53483 9.51921 2.38021 9.95215 2.35547H12.7168ZM4.66406 24.9736H8.67188L6.6123 17.7188L4.66406 24.9736ZM12.9209 4.50781C12.8219 4.24805 12.6982 4.08724 12.5498 4.02539C12.4137 3.95117 12.1725 3.91406 11.8262 3.91406H11.1768L19.9531 27.4414H20.8438C21.0664 27.4414 21.2148 27.3981 21.2891 27.3115C21.3757 27.2126 21.3695 27.0394 21.2705 26.792L12.9209 4.50781ZM24.0141 26.796C24.0141 25.1747 24.3687 23.9967 25.0781 23.262C25.7874 22.502 26.9147 22.122 28.4601 22.122C30.5881 22.122 31.6521 23.0593 31.6521 24.934C31.6521 26.53 31.2847 27.6953 30.5501 28.43C29.8407 29.1647 28.7134 29.532 27.1681 29.532C25.0654 29.532 24.0141 28.62 24.0141 26.796ZM26.1041 14.826C26.1041 13.2047 26.4587 12.0267 27.1681 11.292C27.9027 10.532 28.9161 10.152 30.2081 10.152C31.5001 10.152 32.4121 10.38 32.9441 10.836C33.4761 11.2667 33.7421 11.976 33.7421 12.964C33.7421 14.56 33.3747 15.7253 32.6401 16.46C31.9307 17.1947 30.8034 17.562 29.2581 17.562C27.1554 17.562 26.1041 16.65 26.1041 14.826ZM51.6989 1.64C54.5869 1.64 56.6389 2.27333 57.8549 3.54C58.7669 4.50267 59.2229 5.71867 59.2229 7.188C59.2229 7.69467 59.1722 8.22667 59.0709 8.784L58.7289 10.608C58.4502 12.052 57.9055 13.1793 57.0949 13.99C56.3095 14.8007 55.6129 15.206 55.0049 15.206L54.9669 15.51C55.6762 15.51 56.3982 15.9027 57.1329 16.688C57.8675 17.4733 58.2349 18.398 58.2349 19.462C58.2349 19.8927 58.1842 20.3487 58.0829 20.83L57.8549 22.008C57.4495 24.1867 56.4742 25.8967 54.9289 27.138C53.4089 28.3793 51.2809 29 48.5449 29H35.8529L40.6789 1.64H51.6989ZM48.2789 17.828H44.6689L43.7569 23.072H47.3669C47.4175 23.072 47.4682 23.072 47.5189 23.072C48.6842 23.072 49.6089 22.806 50.2929 22.274C50.9769 21.7167 51.3189 21.0453 51.3189 20.26C51.3189 18.6387 50.3055 17.828 48.2789 17.828ZM49.3049 7.568H46.4549L45.4669 13.23H48.2789C50.7109 13.23 51.9269 12.166 51.9269 10.038C51.9269 9.30333 51.6989 8.708 51.2429 8.252C50.8122 7.796 50.1662 7.568 49.3049 7.568ZM72.3035 10.19C75.0395 10.19 77.1041 10.7853 78.4975 11.976C79.5868 12.9133 80.1315 14.218 80.1315 15.89C80.1315 16.4473 80.0681 17.0553 79.9415 17.714L79.1435 22.16C78.6621 24.8453 77.5348 26.7453 75.7615 27.86C74.0135 28.9747 71.6701 29.532 68.7315 29.532C65.7928 29.532 63.6395 28.9747 62.2715 27.86C61.2581 27.024 60.7515 25.77 60.7515 24.098C60.7515 23.5153 60.8148 22.8693 60.9415 22.16L61.7395 17.714C62.6261 12.698 66.1475 10.19 72.3035 10.19ZM73.3295 18.474C73.3801 18.2207 73.4055 17.904 73.4055 17.524C73.4055 17.1187 73.2408 16.6753 72.9115 16.194C72.5821 15.7127 71.9995 15.472 71.1635 15.472C70.3528 15.472 69.6688 15.7507 69.1115 16.308C68.5541 16.84 68.1995 17.562 68.0475 18.474L67.5535 21.324C67.5028 21.5773 67.4775 21.9067 67.4775 22.312C67.4775 22.692 67.6421 23.11 67.9715 23.566C68.3008 24.022 68.8708 24.25 69.6815 24.25C70.5175 24.25 71.2141 23.9713 71.7715 23.414C72.3288 22.8313 72.6835 22.1347 72.8355 21.324L73.3295 18.474ZM93.7527 10.19C96.4887 10.19 98.5534 10.7853 99.9467 11.976C101.036 12.9133 101.581 14.218 101.581 15.89C101.581 16.4473 101.517 17.0553 101.391 17.714L100.593 22.16C100.111 24.8453 98.984 26.7453 97.2107 27.86C95.4627 28.9747 93.1194 29.532 90.1807 29.532C87.242 29.532 85.0887 28.9747 83.7207 27.86C82.7074 27.024 82.2007 25.77 82.2007 24.098C82.2007 23.5153 82.264 22.8693 82.3907 22.16L83.1887 17.714C84.0754 12.698 87.5967 10.19 93.7527 10.19ZM94.7787 18.474C94.8294 18.2207 94.8547 17.904 94.8547 17.524C94.8547 17.1187 94.69 16.6753 94.3607 16.194C94.0314 15.7127 93.4487 15.472 92.6127 15.472C91.802 15.472 91.118 15.7507 90.5607 16.308C90.0034 16.84 89.6487 17.562 89.4967 18.474L89.0027 21.324C88.952 21.5773 88.9267 21.9067 88.9267 22.312C88.9267 22.692 89.0914 23.11 89.4207 23.566C89.75 24.022 90.32 24.25 91.1307 24.25C91.9667 24.25 92.6634 23.9713 93.2207 23.414C93.778 22.8313 94.1327 22.1347 94.2847 21.324L94.7787 18.474ZM122.042 24.136C122.625 24.136 123.144 24.0093 123.6 23.756L123.41 28.05C122.219 29.038 120.763 29.532 119.04 29.532C117.317 29.532 116.038 29.076 115.202 28.164C114.391 27.252 113.758 25.7193 113.302 23.566L113.188 23.034C112.656 23.11 111.858 23.1733 110.794 23.224L109.768 29H103.308L108.4 0.157998H114.86L112.656 12.66C114.151 11.0133 116.177 10.19 118.736 10.19C120.459 10.19 121.725 10.6207 122.536 11.482C123.372 12.318 123.79 13.4453 123.79 14.864C123.79 17.6 122.359 19.7407 119.496 21.286L119.914 22.692C120.193 23.6547 120.902 24.136 122.042 24.136ZM115.468 15.358C114.1 15.358 112.884 16.004 111.82 17.296L111.402 19.804C115.151 19.652 117.026 18.6513 117.026 16.802C117.026 16.3713 116.887 16.0293 116.608 15.776C116.355 15.4973 115.975 15.358 115.468 15.358Z" fill="#FCC33C"/>
</svg>
