<svg width="80" height="80" viewBox="0 0 80 80" fill="none" xmlns="http://www.w3.org/2000/svg">
<path d="M39.9998 77.3334C60.6185 77.3334 77.3332 60.6187 77.3332 40.0001C77.3332 19.3815 60.6185 2.66675 39.9998 2.66675C19.3812 2.66675 2.6665 19.3815 2.6665 40.0001C2.6665 60.6187 19.3812 77.3334 39.9998 77.3334Z" fill="#D3DADD"/>
<path d="M39.9998 43.9999C47.3636 43.9999 53.3332 38.0304 53.3332 30.6666C53.3332 23.3028 47.3636 17.3333 39.9998 17.3333C32.636 17.3333 26.6665 23.3028 26.6665 30.6666C26.6665 38.0304 32.636 43.9999 39.9998 43.9999Z" fill="#AFB8BB"/>
<mask id="mask0_401_2" style="mask-type:luminance" maskUnits="userSpaceOnUse" x="6" y="6" width="68" height="68">
<path d="M39.9998 73.3334C58.4093 73.3334 73.3332 58.4096 73.3332 40.0001C73.3332 21.5906 58.4093 6.66675 39.9998 6.66675C21.5903 6.66675 6.6665 21.5906 6.6665 40.0001C6.6665 58.4096 21.5903 73.3334 39.9998 73.3334Z" fill="white"/>
</mask>
<g mask="url(#mask0_401_2)">
<path d="M39.9998 98.6667C53.9911 98.6667 65.3332 87.3246 65.3332 73.3333C65.3332 59.3421 53.9911 48 39.9998 48C26.0086 48 14.6665 59.3421 14.6665 73.3333C14.6665 87.3246 26.0086 98.6667 39.9998 98.6667Z" fill="#AFB8BB"/>
</g>
</svg>
